<mxfile host="app.diagrams.net" agent="Mozilla/5.0 (Windows NT 10.0; Win64; x64) AppleWebKit/537.36 (KHTML, like Gecko) Chrome/127.0.0.0 Safari/537.36" version="24.7.7">
  <diagram name="Page-1" id="QT_QAesG8SckjewjfGDZ">
    <mxGraphModel dx="1050" dy="1733" grid="1" gridSize="10" guides="1" tooltips="1" connect="1" arrows="1" fold="1" page="1" pageScale="1" pageWidth="827" pageHeight="1169" math="0" shadow="0">
      <root>
        <mxCell id="0" />
        <mxCell id="1" parent="0" />
        <mxCell id="_ge6_MgcS4BhPv8eNCY3-9" value="" style="edgeStyle=orthogonalEdgeStyle;rounded=0;orthogonalLoop=1;jettySize=auto;html=1;" edge="1" parent="1" source="_ge6_MgcS4BhPv8eNCY3-1" target="_ge6_MgcS4BhPv8eNCY3-6">
          <mxGeometry relative="1" as="geometry" />
        </mxCell>
        <mxCell id="_ge6_MgcS4BhPv8eNCY3-1" value="UI" style="shape=folder;fontStyle=1;spacingTop=10;tabWidth=40;tabHeight=14;tabPosition=left;html=1;whiteSpace=wrap;" vertex="1" parent="1">
          <mxGeometry x="40" y="65" width="70" height="50" as="geometry" />
        </mxCell>
        <mxCell id="_ge6_MgcS4BhPv8eNCY3-2" value="MySQL" style="strokeWidth=2;html=1;shape=mxgraph.flowchart.database;whiteSpace=wrap;" vertex="1" parent="1">
          <mxGeometry x="500" y="60" width="60" height="60" as="geometry" />
        </mxCell>
        <mxCell id="_ge6_MgcS4BhPv8eNCY3-3" value="Database" style="shape=folder;fontStyle=1;spacingTop=10;tabWidth=40;tabHeight=14;tabPosition=left;html=1;whiteSpace=wrap;" vertex="1" parent="1">
          <mxGeometry x="500" y="165" width="70" height="50" as="geometry" />
        </mxCell>
        <mxCell id="_ge6_MgcS4BhPv8eNCY3-21" value="" style="edgeStyle=orthogonalEdgeStyle;rounded=0;orthogonalLoop=1;jettySize=auto;html=1;" edge="1" parent="1" source="_ge6_MgcS4BhPv8eNCY3-6" target="_ge6_MgcS4BhPv8eNCY3-19">
          <mxGeometry relative="1" as="geometry" />
        </mxCell>
        <mxCell id="_ge6_MgcS4BhPv8eNCY3-6" value="controller" style="shape=folder;fontStyle=1;spacingTop=10;tabWidth=40;tabHeight=14;tabPosition=left;html=1;whiteSpace=wrap;" vertex="1" parent="1">
          <mxGeometry x="190" y="65" width="70" height="50" as="geometry" />
        </mxCell>
        <mxCell id="_ge6_MgcS4BhPv8eNCY3-8" value="" style="edgeStyle=orthogonalEdgeStyle;rounded=0;orthogonalLoop=1;jettySize=auto;html=1;" edge="1" parent="1" source="_ge6_MgcS4BhPv8eNCY3-7" target="_ge6_MgcS4BhPv8eNCY3-1">
          <mxGeometry relative="1" as="geometry" />
        </mxCell>
        <mxCell id="_ge6_MgcS4BhPv8eNCY3-7" value="This packages has Swing Code" style="shape=note2;boundedLbl=1;whiteSpace=wrap;html=1;size=25;verticalAlign=top;align=center;" vertex="1" parent="1">
          <mxGeometry x="15" y="160" width="120" height="60" as="geometry" />
        </mxCell>
        <mxCell id="_ge6_MgcS4BhPv8eNCY3-13" value="" style="edgeStyle=orthogonalEdgeStyle;rounded=0;orthogonalLoop=1;jettySize=auto;html=1;" edge="1" parent="1" source="_ge6_MgcS4BhPv8eNCY3-12" target="_ge6_MgcS4BhPv8eNCY3-6">
          <mxGeometry relative="1" as="geometry" />
        </mxCell>
        <mxCell id="_ge6_MgcS4BhPv8eNCY3-12" value="This hold the calling part" style="shape=note2;boundedLbl=1;whiteSpace=wrap;html=1;size=25;verticalAlign=top;align=center;" vertex="1" parent="1">
          <mxGeometry x="165" y="160" width="120" height="60" as="geometry" />
        </mxCell>
        <mxCell id="_ge6_MgcS4BhPv8eNCY3-14" value="Console" style="shape=folder;fontStyle=1;spacingTop=10;tabWidth=40;tabHeight=14;tabPosition=left;html=1;whiteSpace=wrap;" vertex="1" parent="1">
          <mxGeometry x="65" y="270" width="70" height="50" as="geometry" />
        </mxCell>
        <mxCell id="_ge6_MgcS4BhPv8eNCY3-16" style="edgeStyle=orthogonalEdgeStyle;rounded=0;orthogonalLoop=1;jettySize=auto;html=1;entryX=0.286;entryY=0.86;entryDx=0;entryDy=0;entryPerimeter=0;" edge="1" parent="1" source="_ge6_MgcS4BhPv8eNCY3-14" target="_ge6_MgcS4BhPv8eNCY3-6">
          <mxGeometry relative="1" as="geometry" />
        </mxCell>
        <mxCell id="_ge6_MgcS4BhPv8eNCY3-23" style="edgeStyle=orthogonalEdgeStyle;rounded=0;orthogonalLoop=1;jettySize=auto;html=1;" edge="1" parent="1" source="_ge6_MgcS4BhPv8eNCY3-17">
          <mxGeometry relative="1" as="geometry">
            <mxPoint x="375" y="130" as="targetPoint" />
          </mxGeometry>
        </mxCell>
        <mxCell id="_ge6_MgcS4BhPv8eNCY3-17" value="Database related code" style="shape=note2;boundedLbl=1;whiteSpace=wrap;html=1;size=25;verticalAlign=top;align=center;" vertex="1" parent="1">
          <mxGeometry x="315" y="240" width="120" height="60" as="geometry" />
        </mxCell>
        <mxCell id="_ge6_MgcS4BhPv8eNCY3-20" value="" style="edgeStyle=orthogonalEdgeStyle;rounded=0;orthogonalLoop=1;jettySize=auto;html=1;" edge="1" parent="1" source="_ge6_MgcS4BhPv8eNCY3-19" target="_ge6_MgcS4BhPv8eNCY3-2">
          <mxGeometry relative="1" as="geometry" />
        </mxCell>
        <mxCell id="_ge6_MgcS4BhPv8eNCY3-19" value="Dal" style="shape=folder;fontStyle=1;spacingTop=10;tabWidth=40;tabHeight=14;tabPosition=left;html=1;whiteSpace=wrap;" vertex="1" parent="1">
          <mxGeometry x="350" y="75" width="70" height="50" as="geometry" />
        </mxCell>
        <mxCell id="_ge6_MgcS4BhPv8eNCY3-22" style="edgeStyle=orthogonalEdgeStyle;rounded=0;orthogonalLoop=1;jettySize=auto;html=1;entryX=0.75;entryY=1;entryDx=0;entryDy=0;entryPerimeter=0;" edge="1" parent="1" source="_ge6_MgcS4BhPv8eNCY3-3" target="_ge6_MgcS4BhPv8eNCY3-19">
          <mxGeometry relative="1" as="geometry" />
        </mxCell>
        <mxCell id="_ge6_MgcS4BhPv8eNCY3-27" style="edgeStyle=orthogonalEdgeStyle;rounded=0;orthogonalLoop=1;jettySize=auto;html=1;" edge="1" parent="1" source="_ge6_MgcS4BhPv8eNCY3-24">
          <mxGeometry relative="1" as="geometry">
            <mxPoint x="380" y="70" as="targetPoint" />
            <Array as="points">
              <mxPoint x="380" y="-85" />
              <mxPoint x="380" y="10" />
              <mxPoint x="381" y="10" />
            </Array>
          </mxGeometry>
        </mxCell>
        <mxCell id="_ge6_MgcS4BhPv8eNCY3-24" value="" style="shape=folder;fontStyle=1;spacingTop=10;tabWidth=40;tabHeight=14;tabPosition=left;html=1;whiteSpace=wrap;" vertex="1" parent="1">
          <mxGeometry x="120" y="-120" width="250" height="70" as="geometry" />
        </mxCell>
        <mxCell id="_ge6_MgcS4BhPv8eNCY3-26" style="edgeStyle=orthogonalEdgeStyle;rounded=0;orthogonalLoop=1;jettySize=auto;html=1;entryX=0.371;entryY=0.216;entryDx=0;entryDy=0;entryPerimeter=0;" edge="1" parent="1" source="_ge6_MgcS4BhPv8eNCY3-24" target="_ge6_MgcS4BhPv8eNCY3-1">
          <mxGeometry relative="1" as="geometry" />
        </mxCell>
        <mxCell id="_ge6_MgcS4BhPv8eNCY3-28" style="edgeStyle=orthogonalEdgeStyle;rounded=0;orthogonalLoop=1;jettySize=auto;html=1;entryX=0;entryY=0;entryDx=55;entryDy=14;entryPerimeter=0;" edge="1" parent="1" source="_ge6_MgcS4BhPv8eNCY3-24" target="_ge6_MgcS4BhPv8eNCY3-6">
          <mxGeometry relative="1" as="geometry" />
        </mxCell>
        <mxCell id="_ge6_MgcS4BhPv8eNCY3-34" value="&lt;p style=&quot;margin:0px;margin-top:6px;text-align:center;&quot;&gt;&lt;b&gt;Constant&lt;/b&gt;&lt;/p&gt;" style="align=left;overflow=fill;html=1;dropTarget=0;whiteSpace=wrap;" vertex="1" parent="1">
          <mxGeometry x="130" y="-90" width="80" height="30" as="geometry" />
        </mxCell>
        <mxCell id="_ge6_MgcS4BhPv8eNCY3-35" value="" style="shape=component;jettyWidth=8;jettyHeight=4;" vertex="1" parent="_ge6_MgcS4BhPv8eNCY3-34">
          <mxGeometry x="1" width="20" height="20" relative="1" as="geometry">
            <mxPoint x="-24" y="4" as="offset" />
          </mxGeometry>
        </mxCell>
        <mxCell id="_ge6_MgcS4BhPv8eNCY3-36" value="&lt;p style=&quot;margin:0px;margin-top:6px;text-align:center;&quot;&gt;&lt;b&gt;Entity&lt;/b&gt;&lt;/p&gt;" style="align=left;overflow=fill;html=1;dropTarget=0;whiteSpace=wrap;" vertex="1" parent="1">
          <mxGeometry x="220" y="-90" width="80" height="30" as="geometry" />
        </mxCell>
        <mxCell id="_ge6_MgcS4BhPv8eNCY3-37" value="" style="shape=component;jettyWidth=8;jettyHeight=4;" vertex="1" parent="_ge6_MgcS4BhPv8eNCY3-36">
          <mxGeometry x="1" width="20" height="20" relative="1" as="geometry">
            <mxPoint x="-24" y="4" as="offset" />
          </mxGeometry>
        </mxCell>
        <mxCell id="_ge6_MgcS4BhPv8eNCY3-38" value="&lt;p style=&quot;margin:0px;margin-top:6px;text-align:center;&quot;&gt;&lt;b&gt;Exception&lt;/b&gt;&lt;/p&gt;" style="align=left;overflow=fill;html=1;dropTarget=0;whiteSpace=wrap;" vertex="1" parent="1">
          <mxGeometry x="310" y="-90" width="80" height="30" as="geometry" />
        </mxCell>
        <mxCell id="_ge6_MgcS4BhPv8eNCY3-39" value="" style="shape=component;jettyWidth=8;jettyHeight=4;" vertex="1" parent="_ge6_MgcS4BhPv8eNCY3-38">
          <mxGeometry x="1" width="20" height="20" relative="1" as="geometry">
            <mxPoint x="-24" y="4" as="offset" />
          </mxGeometry>
        </mxCell>
      </root>
    </mxGraphModel>
  </diagram>
</mxfile>
